# xmcd
#
# Track frame offsets:
#	187
#	16650
#	29500
#	54250
#	73312
#	93025
#	110237
#	131412
#	152250
#	167262
#	193300
#	212337
#	228337
#	254012
#
# Disc length: 3645 seconds
#
# Revision: 1
# Processed by: cddbd v1.5.1PL0 Copyright (c) Steve Scherf et al.
# Submitted via: CDex 1.50Beta5
#
DISCID=b20e3b0e
DTITLE=Various Artist - Love and Soul Ballads Collection
DYEAR=1900
DGENRE=rock
TTITLE0=The Righteous Brothers/Unchained Melody
TTITLE1=The Righteous Brothers/Ebb Tide
TTITLE2=Vanessa Williams/Dreamin’
TTITLE3=Vanessa Williams/Darlin’ I
TTITLE4=Sharon Bryant/Old Friend
TTITLE5=Jackie Jackson/A Broken Heart
TTITLE6=Deon Estus/Heaven Help Me
TTITLE7=The Main Ingredient/I Just Wanna Love You
TTITLE8=The Main Ingredient/Meant To Be In Love
TTITLE9=Peachs And Herb/Reunited
TTITLE10=Peachs And Herb/The Star Of My Life
TTITLE11=Mildred Douglas/One More Night
TTITLE12=Commodores/I'm Gonna Need Your Loving
TTITLE13=Commodores/So Nice
EXTD=
EXTT0=
EXTT1=
EXTT2=
EXTT3=
EXTT4=
EXTT5=
EXTT6=
EXTT7=
EXTT8=
EXTT9=
EXTT10=
EXTT11=
EXTT12=
EXTT13=
PLAYORDER=
